# xmcd
#
# Track frame offsets:
#	150
#	12535
#	26365
#	51067
#	61051
#
# Disc length: 1035 seconds
#
# Revision: 1
# Processed by: cddbd v1.5.2PL0 Copyright (c) Steve Scherf et al.
# Submitted via: audiograbber 1.83.01
#
DISCID=34040905
DTITLE=Tom Attah - The Living Bluesman EP
DYEAR=2010
DGENRE=Living Blues
TTITLE0=How Long Has It Been (2007)
TTITLE1=Catfish Blues
TTITLE2=Young Man's Blues
TTITLE3=Thinking Blues
TTITLE4=How Long Has It Been (2010)
EXTD=
EXTT0=
EXTT1=
EXTT2=
EXTT3=
EXTT4=
PLAYORDER=
